<svg width="387" height="451" viewBox="0 0 387 451" fill="none" xmlns="http://www.w3.org/2000/svg">
<path d="M187.195 416.859C166.26 398.841 162.174 352.719 131.398 346.474C38.2175 327.566 95.1675 274.023 94.5326 235.334L96.1887 234.523C100.869 272.147 113.563 310.406 132.897 345.164C150.369 376.574 172.149 402.906 195.864 421.314L194.643 422.952C192.138 421.008 189.655 418.977 187.195 416.859Z" fill="#F2F2F2"/>
<path d="M318.352 56.6787C308.591 82.9869 268.531 99.5847 272.311 132.814C283.754 233.424 218.46 189.449 184.005 200.509L182.775 199.029C215.044 184.108 245.441 160.802 270.68 131.63C293.49 105.268 310.438 75.8568 319.702 46.5932L321.54 47.4038C320.563 50.4947 319.5 53.5863 318.352 56.6787Z" fill="#F2F2F2"/>
<path d="M99.3101 117.623C102.439 117.623 104.976 113.902 104.976 109.312C104.976 104.721 102.439 101 99.3101 101C96.1811 101 93.6445 104.721 93.6445 109.312C93.6445 113.902 96.1811 117.623 99.3101 117.623Z" fill="#E6E6E6"/>
<path d="M298.156 197.859C301.286 197.859 303.822 194.138 303.822 189.548C303.822 184.957 301.286 181.236 298.156 181.236C295.027 181.236 292.491 184.957 292.491 189.548C292.491 194.138 295.027 197.859 298.156 197.859Z" fill="#E6E6E6"/>
<path d="M282.777 16.6231C285.906 16.6231 288.442 12.9019 288.442 8.31153C288.442 3.7212 285.906 0 282.777 0C279.648 0 277.111 3.7212 277.111 8.31153C277.111 12.9019 279.648 16.6231 282.777 16.6231Z" fill="#E6E6E6"/>
<path d="M244.128 306.804L237.539 263.457C237.407 262.58 237.598 261.68 238.071 260.957C238.543 260.233 239.259 259.745 240.061 259.598L269.984 254.154C270.786 254.009 271.608 254.218 272.27 254.735C272.931 255.253 273.378 256.036 273.512 256.913L280.101 300.26C280.233 301.137 280.042 302.036 279.569 302.76C279.097 303.483 278.381 303.972 277.579 304.119L247.656 309.563C246.853 309.708 246.032 309.498 245.37 308.981C244.709 308.464 244.262 307.681 244.128 306.804Z" fill="#3F3D56"/>
<path d="M244.274 292.202L240.038 264.335C239.914 263.513 240.093 262.671 240.536 261.993C240.979 261.316 241.649 260.858 242.4 260.72L268.117 256.042C268.868 255.906 269.638 256.102 270.257 256.587C270.877 257.071 271.295 257.804 271.421 258.626L277.284 297.198C277.408 298.02 277.229 298.862 276.786 299.54C276.343 300.218 275.673 300.675 274.922 300.813L258.991 303.711C255.645 304.316 252.216 303.443 249.457 301.286C246.698 299.128 244.834 295.861 244.274 292.202Z" fill="white"/>
<path d="M245.543 272.444C245.422 271.641 245.596 270.819 246.029 270.156C246.462 269.494 247.117 269.047 247.851 268.912L265.69 265.667C266.054 265.601 266.426 265.614 266.785 265.705C267.144 265.796 267.483 265.964 267.783 266.198C268.082 266.432 268.337 266.729 268.532 267.071C268.727 267.413 268.858 267.794 268.919 268.192C268.979 268.59 268.968 268.996 268.884 269.389C268.801 269.782 268.648 270.153 268.434 270.481C268.219 270.809 267.948 271.087 267.635 271.301C267.323 271.514 266.974 271.658 266.611 271.724L248.771 274.969C248.037 275.102 247.285 274.911 246.68 274.437C246.075 273.964 245.666 273.247 245.543 272.444Z" fill="#6082AD"/>
<path d="M246.975 281.866C246.854 281.063 247.029 280.24 247.461 279.578C247.894 278.916 248.549 278.469 249.283 278.334L267.122 275.089C267.486 275.023 267.858 275.036 268.217 275.127C268.576 275.218 268.915 275.385 269.215 275.62C269.514 275.854 269.769 276.151 269.964 276.493C270.159 276.835 270.291 277.216 270.351 277.614C270.411 278.011 270.4 278.418 270.316 278.811C270.233 279.204 270.08 279.575 269.866 279.903C269.651 280.231 269.38 280.509 269.067 280.723C268.755 280.936 268.407 281.08 268.043 281.146L250.203 284.391C249.469 284.524 248.717 284.332 248.112 283.859C247.507 283.386 247.098 282.669 246.975 281.866Z" fill="#6082AD"/>
<path d="M248.407 291.288C248.286 290.485 248.461 289.662 248.893 289C249.326 288.338 249.981 287.891 250.715 287.756L268.555 284.511C269.289 284.377 270.041 284.568 270.647 285.042C271.252 285.515 271.661 286.232 271.783 287.036C271.905 287.839 271.731 288.662 271.298 289.325C270.865 289.987 270.209 290.434 269.475 290.568L251.636 293.813C250.902 293.946 250.149 293.754 249.544 293.281C248.939 292.808 248.53 292.091 248.407 291.288Z" fill="#6082AD"/>
<path d="M230.617 265.948C229.837 264.989 229.26 263.854 228.925 262.624C228.589 261.393 228.505 260.098 228.677 258.828C228.849 257.558 229.274 256.345 229.921 255.274C230.568 254.203 231.421 253.301 232.422 252.63L221.984 198.258L235.818 204.077L243.827 256.021C244.746 257.934 244.991 260.15 244.517 262.248C244.042 264.346 242.881 266.18 241.252 267.404C239.624 268.628 237.642 269.155 235.682 268.887C233.721 268.619 231.919 267.573 230.617 265.948Z" fill="#FFB8B8"/>
<path d="M226.011 437.914L237.398 437.913L242.815 389.863L226.009 389.863L226.011 437.914Z" fill="#FFB6B6"/>
<path d="M223.106 433.846L226.312 433.846L238.825 428.279L245.532 433.845H245.532C249.323 433.845 252.957 435.493 255.637 438.425C258.317 441.357 259.823 445.333 259.823 449.479V449.988L223.107 449.989L223.106 433.846Z" fill="#2F2E41"/>
<path d="M123.122 421.717L133.314 427.274L157.755 386.914L142.714 378.713L123.122 421.717Z" fill="#FFB6B6"/>
<path d="M122.181 416.66L125.05 418.224L138.519 419.348L142.252 427.603L142.253 427.603C145.645 429.453 148.226 432.701 149.429 436.633C150.632 440.565 150.358 444.859 148.668 448.57L148.461 449.025L115.599 431.107L122.181 416.66Z" fill="#2F2E41"/>
<path d="M231.056 219.687L158.655 221.753L159.914 260.324C159.914 260.324 158.655 270.655 161.173 273.41C163.691 276.166 164.95 276.166 163.691 280.987C162.432 285.808 159.177 331.874 159.177 331.874C159.177 331.874 129.461 389.356 130.72 390.734C131.98 392.111 133.239 390.734 131.98 394.177C130.72 397.621 129.461 396.244 130.72 397.621C131.836 398.937 132.887 400.316 133.868 401.754H154.39C154.39 401.754 155.538 394.866 155.538 394.177C155.538 393.489 156.797 389.356 156.797 388.667C156.797 387.979 192.652 346.419 192.652 346.419L200.207 277.543L218.465 345.042C218.465 345.042 218.465 404.275 219.724 405.653C220.983 407.03 220.983 406.342 220.353 409.097C219.724 411.852 217.205 411.163 219.094 413.229C220.983 415.295 221.613 411.852 220.983 415.295L220.353 418.739L244.541 419.035C244.541 419.035 247.06 413.229 245.8 411.163C244.541 409.097 244.617 409.661 246.153 406.279C247.689 402.898 248.319 402.209 247.689 401.52C247.06 400.831 247.06 397.168 247.06 397.168C247.06 397.168 237.982 261.701 237.982 259.635C237.934 258.572 238.113 257.511 238.505 256.537V253.732L236.093 243.794L231.056 219.687Z" fill="#2F2E41"/>
<path d="M296.323 412.028L296.947 396.66C303.46 392.852 310.723 390.841 318.108 390.8C307.945 399.89 309.215 417.413 302.324 429.637C300.149 433.432 297.22 436.642 293.756 439.03C290.292 441.418 286.382 442.923 282.314 443.433L273.809 449.129C272.642 442.012 272.899 434.702 274.563 427.704C276.227 420.706 279.258 414.186 283.447 408.593C285.825 405.48 288.553 402.708 291.564 400.341C293.601 406.217 296.323 412.028 296.323 412.028Z" fill="#F2F2F2"/>
<path d="M193.567 84.4194L229.832 164.656L222.737 262.034L176.396 257.402L168.086 96.1374L193.567 84.4194Z" fill="#2F2E41"/>
<path d="M244.49 251.284L223.299 249.164L223.266 248.87L209.045 120.053L212.228 110.4C212.989 108.109 214.28 106.071 215.974 104.486C217.668 102.902 219.707 101.823 221.895 101.356C223.562 101.005 225.275 101.017 226.937 101.394C228.599 101.77 230.177 102.503 231.579 103.549C232.981 104.596 234.18 105.935 235.106 107.491C236.033 109.047 236.669 110.787 236.978 112.613L240.784 135.102L246.183 211.12L244.49 251.284Z" fill="#2F2E41"/>
<path d="M189.317 96.3184L193.591 85.132L206.818 85.386L220.611 106.73L235.088 173.335C235.088 173.335 240.287 221.99 235.088 224.558C229.888 227.127 212.264 223.955 212.264 223.955L189.317 96.3184Z" fill="#5E81AC"/>
<path d="M206.818 85.386C206.818 85.386 235.311 103.405 236.426 112.811C237.54 122.217 241.272 237.342 241.272 237.342L231.196 230.219L228.442 188.26L216.144 102.354L206.818 85.386Z" fill="#2F2E41"/>
<path d="M200.092 80.1449C210.817 80.1449 219.511 70.6333 219.511 58.9001C219.511 47.167 210.817 37.6554 200.092 37.6554C189.367 37.6554 180.673 47.167 180.673 58.9001C180.673 70.6333 189.367 80.1449 200.092 80.1449Z" fill="#FFB8B8"/>
<path d="M178.065 44.9409C180.246 41.2503 184.338 38.7906 188.304 39.4818C188.674 36.7122 189.73 34.1065 191.359 31.9485C192.989 29.7904 195.128 28.1627 197.544 27.2425C199.96 26.3224 202.561 26.1451 205.063 26.7299C207.564 27.3147 209.872 28.6393 211.733 30.5593C212.345 30.0878 213.058 29.7972 213.803 29.7157C214.548 29.6341 215.3 29.7644 215.985 30.0938C217.351 30.7729 218.538 31.816 219.44 33.1273C221.716 36.2328 223.18 39.9554 223.676 43.8989C224.172 47.8424 223.681 51.8591 222.255 55.5216C222.74 53.5935 220.974 51.7796 219.189 51.3469C217.405 50.9142 215.533 51.3236 213.723 51.0418C211.404 50.6807 209.319 49.2087 206.996 48.8774C205.043 48.599 203.08 49.1466 201.176 49.6956C199.272 50.2444 197.314 50.8042 195.359 50.5502C193.403 50.2962 190.885 58.4025 190.919 64.1121C190.925 65.1941 190.721 66.5833 189.755 66.8129C188.564 67.0956 187.875 65.2984 186.742 64.8086C186.22 64.6449 185.66 64.7093 185.18 64.9883C184.701 65.2673 184.339 65.7391 184.171 66.3042C184.028 66.8788 184.013 67.4823 184.126 68.0646C184.24 68.6469 184.479 69.1912 184.823 69.652C185.52 70.5656 186.346 71.3502 187.272 71.9754L186.805 72.4C186.029 73.5217 184.419 73.5703 183.3 72.8763C182.23 72.0837 181.364 71.0045 180.784 69.7417C178.714 65.9757 176.898 61.963 176.168 57.6419C175.438 53.3208 175.885 48.6315 178.065 44.9409Z" fill="#2F2E41"/>
<path d="M135.767 202.278L174.564 156.742C175.35 155.821 176.438 155.279 177.589 155.235C178.74 155.19 179.86 155.648 180.703 156.506L212.138 188.56C212.98 189.42 213.475 190.611 213.516 191.87C213.556 193.129 213.138 194.354 212.354 195.277L173.557 240.813C172.771 241.734 171.683 242.276 170.532 242.32C169.381 242.364 168.261 241.907 167.418 241.049L135.983 208.995C135.141 208.135 134.646 206.944 134.605 205.685C134.565 204.426 134.983 203.201 135.767 202.278Z" fill="#E6E6E6"/>
<path d="M149.897 190.983L174.839 161.708C175.575 160.846 176.594 160.338 177.672 160.297C178.75 160.255 179.799 160.683 180.588 161.487L207.604 189.035C208.392 189.841 208.856 190.955 208.894 192.135C208.932 193.314 208.541 194.461 207.807 195.326L173.283 235.847C172.546 236.709 171.527 237.217 170.449 237.258C169.371 237.299 168.322 236.871 167.533 236.068L150.797 219.002C147.286 215.414 145.22 210.449 145.051 205.196C144.882 199.943 146.625 194.832 149.897 190.983Z" fill="white"/>
<path d="M172.254 174.337C172.973 173.494 173.969 172.998 175.022 172.958C176.075 172.917 177.1 173.335 177.872 174.121L196.613 193.231C197.384 194.017 197.838 195.107 197.875 196.259C197.912 197.412 197.529 198.534 196.811 199.378C196.092 200.221 195.096 200.718 194.042 200.759C192.988 200.799 191.963 200.38 191.192 199.594L172.451 180.483C171.681 179.696 171.228 178.607 171.191 177.455C171.153 176.302 171.536 175.181 172.254 174.337Z" fill="#E6E6E6"/>
<path d="M163.821 184.234C164.54 183.392 165.536 182.896 166.589 182.855C167.643 182.815 168.668 183.233 169.439 184.018L188.18 203.129C188.562 203.518 188.87 203.986 189.087 204.506C189.303 205.025 189.424 205.586 189.443 206.157C189.461 206.728 189.376 207.297 189.194 207.832C189.011 208.367 188.734 208.858 188.378 209.275C188.022 209.693 187.594 210.03 187.119 210.267C186.644 210.504 186.131 210.636 185.609 210.656C185.088 210.677 184.567 210.584 184.078 210.384C183.589 210.184 183.141 209.881 182.759 209.491L164.018 190.381C163.248 189.594 162.795 188.505 162.758 187.353C162.721 186.2 163.103 185.079 163.821 184.234Z" fill="#E6E6E6"/>
<path d="M155.388 194.132C156.107 193.29 157.103 192.794 158.156 192.753C159.21 192.713 160.235 193.131 161.007 193.916L179.747 213.026C180.519 213.813 180.973 214.902 181.01 216.055C181.047 217.208 180.664 218.329 179.945 219.173C179.226 220.017 178.23 220.514 177.176 220.554C176.123 220.595 175.097 220.176 174.326 219.389L155.585 200.279C154.815 199.492 154.362 198.403 154.325 197.25C154.288 196.098 154.67 194.976 155.388 194.132Z" fill="#E6E6E6"/>
<path d="M200.986 248.408L187.573 269.419L186.948 270.243C185.862 271.673 184.361 272.653 182.696 273.021C182.46 273.073 182.223 273.111 181.985 273.137C181.691 273.17 181.396 273.183 181.101 273.177C180.931 273.173 180.763 273.163 180.594 273.147C179.616 273.055 178.664 272.752 177.793 272.254L172.07 267.882C171.615 267.534 171.29 267.018 171.155 266.428C171.089 266.137 171.07 265.834 171.099 265.536C171.142 265.117 171.279 264.716 171.5 264.371L188.017 238.499C188.367 237.951 188.902 237.578 189.504 237.461C190.105 237.344 190.725 237.493 191.227 237.875L200.417 244.897C200.439 244.913 200.46 244.93 200.481 244.947C200.495 244.958 200.508 244.97 200.521 244.982C200.54 244.997 200.558 245.013 200.575 245.029C200.597 245.049 200.619 245.069 200.64 245.09C200.659 245.109 200.679 245.129 200.698 245.149L200.709 245.161C200.733 245.186 200.757 245.212 200.779 245.239C200.802 245.265 200.825 245.292 200.846 245.32C200.861 245.339 200.877 245.36 200.892 245.38L200.894 245.382C200.938 245.443 200.98 245.505 201.019 245.571C201.031 245.59 201.043 245.611 201.055 245.632L201.06 245.64C201.069 245.657 201.078 245.674 201.087 245.69C201.114 245.74 201.139 245.791 201.162 245.843C201.201 245.929 201.235 246.017 201.265 246.107C201.275 246.136 201.283 246.165 201.291 246.194C201.298 246.218 201.305 246.242 201.311 246.267L201.313 246.272L201.315 246.282C201.321 246.303 201.326 246.324 201.331 246.345C201.34 246.385 201.349 246.426 201.356 246.467C201.359 246.479 201.361 246.49 201.363 246.501C201.365 246.513 201.366 246.524 201.368 246.536C201.37 246.547 201.372 246.558 201.374 246.569L201.377 246.587C201.381 246.62 201.385 246.654 201.388 246.687C201.392 246.729 201.396 246.771 201.397 246.812C201.4 246.847 201.401 246.881 201.401 246.915C201.402 246.946 201.402 246.977 201.402 247.008C201.402 247.016 201.402 247.024 201.401 247.032C201.401 247.064 201.399 247.096 201.397 247.128C201.393 247.208 201.384 247.288 201.373 247.366C201.369 247.396 201.364 247.425 201.358 247.453C201.352 247.489 201.345 247.524 201.338 247.558C201.335 247.571 201.332 247.584 201.329 247.597C201.324 247.616 201.319 247.635 201.314 247.654C201.309 247.675 201.303 247.697 201.297 247.717L201.282 247.768C201.273 247.798 201.263 247.826 201.253 247.856C201.247 247.873 201.241 247.89 201.234 247.908C201.188 248.033 201.133 248.154 201.069 248.27C201.06 248.284 201.053 248.298 201.045 248.312C201.026 248.345 201.007 248.376 200.986 248.408Z" fill="white"/>
<path d="M191.903 249.206C192.99 249.206 193.872 248.241 193.872 247.052C193.872 245.862 192.99 244.898 191.903 244.898C190.815 244.898 189.934 245.862 189.934 247.052C189.934 248.241 190.815 249.206 191.903 249.206Z" fill="#6082AD"/>
<path d="M169.66 269.814C168.881 268.855 168.303 267.72 167.968 266.49C167.633 265.259 167.549 263.964 167.721 262.694C167.893 261.424 168.317 260.211 168.964 259.14C169.611 258.069 170.465 257.167 171.465 256.496L161.028 202.124L174.862 207.943L182.871 259.887C183.789 261.8 184.035 264.016 183.56 266.114C183.086 268.212 181.924 270.046 180.296 271.27C178.667 272.493 176.685 273.021 174.725 272.753C172.765 272.485 170.963 271.439 169.66 269.814Z" fill="#FFB8B8"/>
<path d="M161.996 247.751L156.366 208.065L154.25 131.846L155.822 109.001C155.95 107.149 156.411 105.344 157.179 103.688C157.947 102.033 159.008 100.56 160.298 99.3543C161.589 98.1489 163.086 97.2348 164.701 96.6649C166.316 96.0949 168.018 95.8802 169.71 96.0331C171.931 96.2402 174.065 97.0723 175.905 98.4484C177.745 99.8246 179.229 101.698 180.211 103.887L184.325 113.109L182.856 243.149L161.996 247.751Z" fill="#2F2E41"/>
<path d="M339.086 449.86C339.086 450.01 339.059 450.158 339.007 450.297C338.955 450.435 338.878 450.561 338.781 450.667C338.685 450.773 338.57 450.857 338.443 450.914C338.316 450.971 338.181 451 338.044 451H57.6574C57.3811 451 57.1162 450.88 56.9208 450.666C56.7254 450.452 56.6157 450.163 56.6157 449.86C56.6157 449.558 56.7254 449.268 56.9208 449.054C57.1162 448.841 57.3811 448.721 57.6574 448.721H338.044C338.181 448.72 338.316 448.749 338.443 448.806C338.57 448.864 338.685 448.948 338.781 449.053C338.878 449.159 338.955 449.285 339.007 449.424C339.059 449.562 339.086 449.71 339.086 449.86Z" fill="#CCCCCC"/>
<path d="M184.885 67.5113C184.897 67.2708 184.964 67.0372 185.078 66.8312C185.192 66.6252 185.351 66.4532 185.54 66.3303C185.73 66.2074 185.944 66.1375 186.164 66.1266C186.384 66.1157 186.603 66.1643 186.802 66.268C187.001 66.3717 187.173 66.5274 187.304 66.7213C187.435 66.9151 187.52 67.1412 187.552 67.3796C187.584 67.618 187.562 67.8614 187.487 68.0881C187.413 68.3149 187.289 68.5182 187.125 68.68L189.38 72.7332C189.472 72.8994 189.501 73.099 189.459 73.2881C189.417 73.4772 189.308 73.6403 189.156 73.7414C189.004 73.8426 188.821 73.8736 188.648 73.8276C188.476 73.7815 188.326 73.6623 188.234 73.4961L185.699 68.9387C185.446 68.8213 185.232 68.6212 185.086 68.3658C184.94 68.1103 184.87 67.8119 184.885 67.5113Z" fill="white"/>
<path d="M186.467 70.2667C186.551 70.4476 186.752 70.5203 186.918 70.4291C187.083 70.3378 187.149 70.1172 187.066 69.9363L186.462 68.626C186.379 68.4451 186.177 68.3724 186.012 68.4636C185.846 68.5549 185.78 68.7755 185.863 68.9564L186.467 70.2667Z" fill="#2F2E41"/>
</svg>
