<svg width="230" height="168" viewBox="0 0 230 168" fill="none" xmlns="http://www.w3.org/2000/svg">
<g clip-path="url(#clip0_1_153)">
<path d="M133.975 29.5409C138.285 29.5409 141.78 26.0404 141.78 21.7222C141.78 17.4041 138.285 13.9036 133.975 13.9036C129.664 13.9036 126.17 17.4041 126.17 21.7222C126.17 26.0404 129.664 29.5409 133.975 29.5409Z" fill="#F2F2F2"/>
<path d="M194.521 145.579C206.122 136.727 211.663 121.852 208.194 107.663C208.108 107.31 208.017 106.959 207.921 106.608C205.622 98.1849 199.932 90.1799 191.639 87.4886C184.677 85.2289 177.076 86.9666 169.812 86.068C155.553 84.304 144.498 72.7462 136.719 60.6451C128.94 48.544 122.962 34.9986 112.626 25.0013C95.5883 8.52244 67.7957 4.97453 46.6716 15.701C25.5475 26.4275 12.0916 50.2252 12.6655 73.9425C13.2393 97.6599 27.2948 120.335 47.7068 132.366C55.2054 136.786 63.8781 139.917 72.5093 138.821C79.9985 137.87 86.8033 133.839 94.2572 132.643C105.977 130.761 117.621 136.069 127.757 142.254C137.894 148.44 147.685 155.771 159.203 158.638C170.388 161.423 184.244 153.42 194.521 145.579Z" fill="#EEF4F4"/>
<path d="M177.853 16.1991C177.598 16.0292 177.341 15.8682 177.087 15.7042C169.735 10.9943 161.856 7.1681 153.611 4.30453L151.699 30.7232H139.58V0.448022C138.817 0.289896 138.048 0.140556 137.279 0V30.7232H122.877C114.948 30.7232 107.344 27.5681 101.738 21.9519C96.1313 16.3357 92.9816 8.71851 92.9816 0.77602C92.2099 0.942931 91.444 1.12153 90.6781 1.31186V30.7232H78.9475L77.1264 5.53147C68.6535 8.7866 60.6097 13.0673 53.174 18.2781C53.0454 18.366 52.9168 18.4568 52.7911 18.5446C52.145 18.9985 51.5078 19.4612 50.8735 19.9297V120.717H85.4457L84.8347 112.24L81.4731 65.6953H149.171L145.809 112.24L145.198 120.717H179.387V17.2181C178.879 16.8726 178.367 16.5329 177.853 16.1991ZM90.6782 58.0086H80.9177L79.1141 33.0307H90.6782V58.0086ZM137.279 58.0086H120.886V57.5138C120.886 57.2759 120.839 57.0403 120.748 56.8205C120.657 56.6008 120.524 56.4012 120.356 56.2331C120.188 56.065 119.988 55.9318 119.769 55.841C119.549 55.7502 119.314 55.7037 119.077 55.7041H111.95C111.713 55.704 111.478 55.7508 111.259 55.8417C111.039 55.9326 110.84 56.0659 110.672 56.2339C110.505 56.402 110.372 56.6015 110.281 56.8211C110.19 57.0407 110.143 57.2761 110.143 57.5138V58.0086H92.9816V33.0307H137.279V58.0086ZM139.58 58.0086V33.0307H151.533L149.729 58.0086H139.58Z" fill="#3F3D56"/>
<path d="M0 127.171C2.53942 130.185 5.2861 133.018 8.21993 135.648L221.78 135.941C224.714 133.311 227.461 130.478 230 127.464L0 127.171Z" fill="#3F3D56"/>
<path d="M144.822 100.026V125.123C144.822 125.443 144.949 125.749 145.175 125.975C145.401 126.202 145.707 126.329 146.026 126.329H183.152C183.471 126.329 183.777 126.202 184.003 125.975C184.228 125.749 184.355 125.443 184.356 125.123V100.026C184.355 99.707 184.228 99.4007 184.002 99.1749C183.776 98.9491 183.471 98.8221 183.152 98.8217H146.026C145.707 98.8221 145.401 98.9491 145.176 99.1749C144.95 99.4007 144.823 99.707 144.822 100.026Z" fill="#3F3D56"/>
<path d="M145.693 100.339V124.813C145.693 124.984 145.761 125.148 145.882 125.269C146.002 125.39 146.166 125.458 146.337 125.458H182.843C183.013 125.458 183.177 125.39 183.297 125.269C183.418 125.148 183.486 124.984 183.486 124.813V100.339C183.486 100.168 183.418 100.004 183.298 99.8825C183.177 99.7614 183.013 99.6932 182.843 99.6928H146.337C146.166 99.6932 146.002 99.7614 145.881 99.8825C145.761 100.004 145.693 100.168 145.693 100.339Z" fill="url(#paint0_linear_1_153)"/>
<path d="M144.046 130.017C144.114 130.103 144.2 130.172 144.298 130.219C144.397 130.266 144.505 130.29 144.614 130.29H184.366C184.475 130.289 184.582 130.265 184.68 130.218C184.779 130.171 184.865 130.103 184.933 130.018C185.002 129.934 185.051 129.835 185.076 129.729C185.102 129.623 185.104 129.513 185.081 129.406L184.464 126.47C184.439 126.35 184.384 126.239 184.304 126.146C184.224 126.053 184.123 125.982 184.009 125.938C183.926 125.905 183.838 125.889 183.749 125.889H145.228C145.139 125.889 145.051 125.905 144.969 125.938C144.855 125.982 144.753 126.053 144.673 126.146C144.594 126.239 144.539 126.35 144.513 126.47L143.896 129.406C143.874 129.513 143.876 129.623 143.902 129.729C143.928 129.834 143.977 129.933 144.046 130.017Z" fill="#2F2E41"/>
<path d="M182.385 127.154H183.324C183.403 127.154 183.467 127.09 183.467 127.011V126.561C183.467 126.482 183.403 126.418 183.324 126.418H182.385C182.306 126.418 182.243 126.482 182.243 126.561V127.011C182.243 127.09 182.306 127.154 182.385 127.154Z" fill="#3F3D56"/>
<path d="M179.937 127.154H180.876C180.954 127.154 181.018 127.09 181.018 127.011V126.561C181.018 126.482 180.954 126.418 180.876 126.418H179.937C179.858 126.418 179.794 126.482 179.794 126.561V127.011C179.794 127.09 179.858 127.154 179.937 127.154Z" fill="#3F3D56"/>
<path d="M177.488 127.154H178.427C178.506 127.154 178.569 127.09 178.569 127.011V126.561C178.569 126.482 178.506 126.418 178.427 126.418H177.488C177.409 126.418 177.345 126.482 177.345 126.561V127.011C177.345 127.09 177.409 127.154 177.488 127.154Z" fill="#3F3D56"/>
<path d="M175.039 127.154H175.978C176.057 127.154 176.121 127.09 176.121 127.011V126.561C176.121 126.482 176.057 126.418 175.978 126.418H175.039C174.96 126.418 174.896 126.482 174.896 126.561V127.011C174.896 127.09 174.96 127.154 175.039 127.154Z" fill="#3F3D56"/>
<path d="M172.59 127.154H173.529C173.608 127.154 173.672 127.09 173.672 127.011V126.561C173.672 126.482 173.608 126.418 173.529 126.418H172.59C172.512 126.418 172.448 126.482 172.448 126.561V127.011C172.448 127.09 172.512 127.154 172.59 127.154Z" fill="#3F3D56"/>
<path d="M170.142 127.154H171.081C171.159 127.154 171.223 127.09 171.223 127.011V126.561C171.223 126.482 171.159 126.418 171.081 126.418H170.142C170.063 126.418 169.999 126.482 169.999 126.561V127.011C169.999 127.09 170.063 127.154 170.142 127.154Z" fill="#3F3D56"/>
<path d="M167.693 127.154H168.632C168.711 127.154 168.775 127.09 168.775 127.011V126.561C168.775 126.482 168.711 126.418 168.632 126.418H167.693C167.614 126.418 167.55 126.482 167.55 126.561V127.011C167.55 127.09 167.614 127.154 167.693 127.154Z" fill="#3F3D56"/>
<path d="M165.244 127.154H166.183C166.262 127.154 166.326 127.09 166.326 127.011V126.561C166.326 126.482 166.262 126.418 166.183 126.418H165.244C165.165 126.418 165.101 126.482 165.101 126.561V127.011C165.101 127.09 165.165 127.154 165.244 127.154Z" fill="#3F3D56"/>
<path d="M162.795 127.154H163.734C163.813 127.154 163.877 127.09 163.877 127.011V126.561C163.877 126.482 163.813 126.418 163.734 126.418H162.795C162.717 126.418 162.653 126.482 162.653 126.561V127.011C162.653 127.09 162.717 127.154 162.795 127.154Z" fill="#3F3D56"/>
<path d="M160.347 127.154H161.286C161.365 127.154 161.428 127.09 161.428 127.011V126.561C161.428 126.482 161.365 126.418 161.286 126.418H160.347C160.268 126.418 160.204 126.482 160.204 126.561V127.011C160.204 127.09 160.268 127.154 160.347 127.154Z" fill="#3F3D56"/>
<path d="M157.898 127.154H158.837C158.916 127.154 158.98 127.09 158.98 127.011V126.561C158.98 126.482 158.916 126.418 158.837 126.418H157.898C157.819 126.418 157.755 126.482 157.755 126.561V127.011C157.755 127.09 157.819 127.154 157.898 127.154Z" fill="#3F3D56"/>
<path d="M155.449 127.154H156.388C156.467 127.154 156.531 127.09 156.531 127.011V126.561C156.531 126.482 156.467 126.418 156.388 126.418H155.449C155.37 126.418 155.307 126.482 155.307 126.561V127.011C155.307 127.09 155.37 127.154 155.449 127.154Z" fill="#3F3D56"/>
<path d="M153.001 127.154H153.939C154.018 127.154 154.082 127.09 154.082 127.011V126.561C154.082 126.482 154.018 126.418 153.939 126.418H153.001C152.922 126.418 152.858 126.482 152.858 126.561V127.011C152.858 127.09 152.922 127.154 153.001 127.154Z" fill="#3F3D56"/>
<path d="M150.552 127.154H151.491C151.57 127.154 151.633 127.09 151.633 127.011V126.561C151.633 126.482 151.57 126.418 151.491 126.418H150.552C150.473 126.418 150.409 126.482 150.409 126.561V127.011C150.409 127.09 150.473 127.154 150.552 127.154Z" fill="#3F3D56"/>
<path d="M148.103 127.154H149.042C149.121 127.154 149.185 127.09 149.185 127.011V126.561C149.185 126.482 149.121 126.418 149.042 126.418H148.103C148.024 126.418 147.96 126.482 147.96 126.561V127.011C147.96 127.09 148.024 127.154 148.103 127.154Z" fill="#3F3D56"/>
<path d="M145.654 127.154H146.593C146.672 127.154 146.736 127.09 146.736 127.011V126.561C146.736 126.482 146.672 126.418 146.593 126.418H145.654C145.576 126.418 145.512 126.482 145.512 126.561V127.011C145.512 127.09 145.576 127.154 145.654 127.154Z" fill="#3F3D56"/>
<path d="M182.414 128.38H183.353C183.432 128.38 183.496 128.316 183.496 128.237V127.787C183.496 127.708 183.432 127.644 183.353 127.644H182.414C182.335 127.644 182.271 127.708 182.271 127.787V128.237C182.271 128.316 182.335 128.38 182.414 128.38Z" fill="#3F3D56"/>
<path d="M179.965 128.38H180.904C180.983 128.38 181.047 128.316 181.047 128.237V127.787C181.047 127.708 180.983 127.644 180.904 127.644H179.965C179.887 127.644 179.823 127.708 179.823 127.787V128.237C179.823 128.316 179.887 128.38 179.965 128.38Z" fill="#3F3D56"/>
<path d="M177.517 128.38H178.456C178.534 128.38 178.598 128.316 178.598 128.237V127.787C178.598 127.708 178.534 127.644 178.456 127.644H177.517C177.438 127.644 177.374 127.708 177.374 127.787V128.237C177.374 128.316 177.438 128.38 177.517 128.38Z" fill="#3F3D56"/>
<path d="M175.068 128.38H176.007C176.086 128.38 176.15 128.316 176.15 128.237V127.787C176.15 127.708 176.086 127.644 176.007 127.644H175.068C174.989 127.644 174.925 127.708 174.925 127.787V128.237C174.925 128.316 174.989 128.38 175.068 128.38Z" fill="#3F3D56"/>
<path d="M172.619 128.38H173.558C173.637 128.38 173.701 128.316 173.701 128.237V127.787C173.701 127.708 173.637 127.644 173.558 127.644H172.619C172.54 127.644 172.477 127.708 172.477 127.787V128.237C172.477 128.316 172.54 128.38 172.619 128.38Z" fill="#3F3D56"/>
<path d="M170.171 128.38H171.11C171.188 128.38 171.252 128.316 171.252 128.237V127.787C171.252 127.708 171.188 127.644 171.11 127.644H170.171C170.092 127.644 170.028 127.708 170.028 127.787V128.237C170.028 128.316 170.092 128.38 170.171 128.38Z" fill="#3F3D56"/>
<path d="M167.722 128.38H168.661C168.74 128.38 168.803 128.316 168.803 128.237V127.787C168.803 127.708 168.74 127.644 168.661 127.644H167.722C167.643 127.644 167.579 127.708 167.579 127.787V128.237C167.579 128.316 167.643 128.38 167.722 128.38Z" fill="#3F3D56"/>
<path d="M165.273 128.38H166.212C166.291 128.38 166.355 128.316 166.355 128.237V127.787C166.355 127.708 166.291 127.644 166.212 127.644H165.273C165.194 127.644 165.13 127.708 165.13 127.787V128.237C165.13 128.316 165.194 128.38 165.273 128.38Z" fill="#3F3D56"/>
<path d="M162.824 128.38H163.763C163.842 128.38 163.906 128.316 163.906 128.237V127.787C163.906 127.708 163.842 127.644 163.763 127.644H162.824C162.746 127.644 162.682 127.708 162.682 127.787V128.237C162.682 128.316 162.746 128.38 162.824 128.38Z" fill="#3F3D56"/>
<path d="M160.376 128.38H161.315C161.393 128.38 161.457 128.316 161.457 128.237V127.787C161.457 127.708 161.393 127.644 161.315 127.644H160.376C160.297 127.644 160.233 127.708 160.233 127.787V128.237C160.233 128.316 160.297 128.38 160.376 128.38Z" fill="#3F3D56"/>
<path d="M157.927 128.38H158.866C158.945 128.38 159.009 128.316 159.009 128.237V127.787C159.009 127.708 158.945 127.644 158.866 127.644H157.927C157.848 127.644 157.784 127.708 157.784 127.787V128.237C157.784 128.316 157.848 128.38 157.927 128.38Z" fill="#3F3D56"/>
<path d="M155.478 128.38H156.417C156.496 128.38 156.56 128.316 156.56 128.237V127.787C156.56 127.708 156.496 127.644 156.417 127.644H155.478C155.399 127.644 155.336 127.708 155.336 127.787V128.237C155.336 128.316 155.399 128.38 155.478 128.38Z" fill="#3F3D56"/>
<path d="M153.03 128.38H153.968C154.047 128.38 154.111 128.316 154.111 128.237V127.787C154.111 127.708 154.047 127.644 153.968 127.644H153.03C152.951 127.644 152.887 127.708 152.887 127.787V128.237C152.887 128.316 152.951 128.38 153.03 128.38Z" fill="#3F3D56"/>
<path d="M150.581 128.38H151.52C151.599 128.38 151.662 128.316 151.662 128.237V127.787C151.662 127.708 151.599 127.644 151.52 127.644H150.581C150.502 127.644 150.438 127.708 150.438 127.787V128.237C150.438 128.316 150.502 128.38 150.581 128.38Z" fill="#3F3D56"/>
<path d="M148.132 128.38H149.071C149.15 128.38 149.214 128.316 149.214 128.237V127.787C149.214 127.708 149.15 127.644 149.071 127.644H148.132C148.053 127.644 147.989 127.708 147.989 127.787V128.237C147.989 128.316 148.053 128.38 148.132 128.38Z" fill="#3F3D56"/>
<path d="M145.683 128.38H146.622C146.701 128.38 146.765 128.316 146.765 128.237V127.787C146.765 127.708 146.701 127.644 146.622 127.644H145.683C145.604 127.644 145.541 127.708 145.541 127.787V128.237C145.541 128.316 145.604 128.38 145.683 128.38Z" fill="#3F3D56"/>
<path d="M162.09 129.852H171.599C171.678 129.852 171.742 129.788 171.742 129.709V129.259C171.742 129.18 171.678 129.116 171.599 129.116H162.09C162.011 129.116 161.947 129.18 161.947 129.259V129.709C161.947 129.788 162.011 129.852 162.09 129.852Z" fill="#3F3D56"/>
<path d="M152.015 105.047H151.184C150.931 105.047 150.727 105.252 150.727 105.504C150.727 105.757 150.931 105.961 151.184 105.961H152.015C152.267 105.961 152.471 105.757 152.471 105.504C152.471 105.252 152.267 105.047 152.015 105.047Z" fill="white"/>
<path d="M161.522 105.047H160.69C160.438 105.047 160.234 105.252 160.234 105.504C160.234 105.757 160.438 105.961 160.69 105.961H161.522C161.774 105.961 161.978 105.757 161.978 105.504C161.978 105.252 161.774 105.047 161.522 105.047Z" fill="white"/>
<path d="M164.215 105.047H163.384C163.132 105.047 162.928 105.252 162.928 105.504C162.928 105.757 163.132 105.961 163.384 105.961H164.215C164.467 105.961 164.672 105.757 164.672 105.504C164.672 105.252 164.467 105.047 164.215 105.047Z" fill="white"/>
<path d="M158.936 104.971H153.769C153.517 104.971 153.313 105.176 153.313 105.428C153.313 105.681 153.517 105.885 153.769 105.885H158.936C159.188 105.885 159.392 105.681 159.392 105.428C159.392 105.176 159.188 104.971 158.936 104.971Z" fill="white"/>
<path d="M171.612 104.971H166.445C166.193 104.971 165.989 105.176 165.989 105.428C165.989 105.681 166.193 105.885 166.445 105.885H171.612C171.864 105.885 172.068 105.681 172.068 105.428C172.068 105.176 171.864 104.971 171.612 104.971Z" fill="white"/>
<path d="M154.55 107.111H153.719C153.467 107.111 153.262 107.315 153.262 107.568C153.262 107.82 153.467 108.025 153.719 108.025H154.55C154.802 108.025 155.006 107.82 155.006 107.568C155.006 107.315 154.802 107.111 154.55 107.111Z" fill="white"/>
<path d="M164.057 107.111H163.226C162.974 107.111 162.769 107.315 162.769 107.568C162.769 107.82 162.974 108.025 163.226 108.025H164.057C164.309 108.025 164.513 107.82 164.513 107.568C164.513 107.315 164.309 107.111 164.057 107.111Z" fill="white"/>
<path d="M166.751 107.111H165.919C165.667 107.111 165.463 107.315 165.463 107.568C165.463 107.82 165.667 108.025 165.919 108.025H166.751C167.003 108.025 167.207 107.82 167.207 107.568C167.207 107.315 167.003 107.111 166.751 107.111Z" fill="white"/>
<path d="M161.471 107.034H156.305C156.053 107.034 155.848 107.239 155.848 107.492C155.848 107.744 156.053 107.949 156.305 107.949H161.471C161.723 107.949 161.927 107.744 161.927 107.492C161.927 107.239 161.723 107.034 161.471 107.034Z" fill="white"/>
<path d="M174.147 107.034H168.981C168.729 107.034 168.524 107.239 168.524 107.492C168.524 107.744 168.729 107.949 168.981 107.949H174.147C174.399 107.949 174.603 107.744 174.603 107.492C174.603 107.239 174.399 107.034 174.147 107.034Z" fill="white"/>
<path d="M157.085 109.174H156.254C156.002 109.174 155.798 109.379 155.798 109.631C155.798 109.884 156.002 110.088 156.254 110.088H157.085C157.337 110.088 157.541 109.884 157.541 109.631C157.541 109.379 157.337 109.174 157.085 109.174Z" fill="white"/>
<path d="M166.592 109.174H165.761C165.509 109.174 165.305 109.379 165.305 109.631C165.305 109.884 165.509 110.088 165.761 110.088H166.592C166.844 110.088 167.048 109.884 167.048 109.631C167.048 109.379 166.844 109.174 166.592 109.174Z" fill="white"/>
<path d="M169.286 109.174H168.455C168.203 109.174 167.998 109.379 167.998 109.631C167.998 109.884 168.203 110.088 168.455 110.088H169.286C169.538 110.088 169.742 109.884 169.742 109.631C169.742 109.379 169.538 109.174 169.286 109.174Z" fill="white"/>
<path d="M164.006 109.098H158.84C158.588 109.098 158.383 109.303 158.383 109.555C158.383 109.807 158.588 110.012 158.84 110.012H164.006C164.258 110.012 164.463 109.807 164.463 109.555C164.463 109.303 164.258 109.098 164.006 109.098Z" fill="white"/>
<path d="M176.682 109.098H171.516C171.264 109.098 171.059 109.303 171.059 109.555C171.059 109.807 171.264 110.012 171.516 110.012H176.682C176.934 110.012 177.138 109.807 177.138 109.555C177.138 109.303 176.934 109.098 176.682 109.098Z" fill="white"/>
<path d="M159.62 111.238H158.789C158.537 111.238 158.333 111.442 158.333 111.695C158.333 111.947 158.537 112.152 158.789 112.152H159.62C159.872 112.152 160.077 111.947 160.077 111.695C160.077 111.442 159.872 111.238 159.62 111.238Z" fill="white"/>
<path d="M169.127 111.238H168.296C168.044 111.238 167.84 111.442 167.84 111.695C167.84 111.947 168.044 112.152 168.296 112.152H169.127C169.379 112.152 169.584 111.947 169.584 111.695C169.584 111.442 169.379 111.238 169.127 111.238Z" fill="white"/>
<path d="M171.821 111.238H170.99C170.738 111.238 170.533 111.442 170.533 111.695C170.533 111.947 170.738 112.152 170.99 112.152H171.821C172.073 112.152 172.277 111.947 172.277 111.695C172.277 111.442 172.073 111.238 171.821 111.238Z" fill="white"/>
<path d="M166.541 111.161H161.375C161.123 111.161 160.919 111.366 160.919 111.618C160.919 111.871 161.123 112.076 161.375 112.076H166.541C166.793 112.076 166.998 111.871 166.998 111.618C166.998 111.366 166.793 111.161 166.541 111.161Z" fill="white"/>
<path d="M161.522 119.443H160.69C160.438 119.443 160.234 119.647 160.234 119.9C160.234 120.152 160.438 120.357 160.69 120.357H161.522C161.774 120.357 161.978 120.152 161.978 119.9C161.978 119.647 161.774 119.443 161.522 119.443Z" fill="white"/>
<path d="M164.215 119.443H163.384C163.132 119.443 162.928 119.647 162.928 119.9C162.928 120.152 163.132 120.357 163.384 120.357H164.215C164.467 120.357 164.672 120.152 164.672 119.9C164.672 119.647 164.467 119.443 164.215 119.443Z" fill="white"/>
<path d="M171.612 119.519H166.445C166.193 119.519 165.989 119.723 165.989 119.976C165.989 120.228 166.193 120.433 166.445 120.433H171.612C171.864 120.433 172.068 120.228 172.068 119.976C172.068 119.723 171.864 119.519 171.612 119.519Z" fill="white"/>
<path d="M152.015 119.443H151.184C150.931 119.443 150.727 119.647 150.727 119.9C150.727 120.152 150.931 120.357 151.184 120.357H152.015C152.267 120.357 152.471 120.152 152.471 119.9C152.471 119.647 152.267 119.443 152.015 119.443Z" fill="white"/>
<path d="M158.936 119.519H153.769C153.517 119.519 153.313 119.723 153.313 119.976C153.313 120.228 153.517 120.433 153.769 120.433H158.936C159.188 120.433 159.392 120.228 159.392 119.976C159.392 119.723 159.188 119.519 158.936 119.519Z" fill="white"/>
<path d="M154.55 117.379H153.719C153.467 117.379 153.262 117.584 153.262 117.836C153.262 118.089 153.467 118.293 153.719 118.293H154.55C154.802 118.293 155.006 118.089 155.006 117.836C155.006 117.584 154.802 117.379 154.55 117.379Z" fill="white"/>
<path d="M164.057 117.379H163.226C162.974 117.379 162.769 117.584 162.769 117.836C162.769 118.089 162.974 118.293 163.226 118.293H164.057C164.309 118.293 164.513 118.089 164.513 117.836C164.513 117.584 164.309 117.379 164.057 117.379Z" fill="white"/>
<path d="M166.751 117.379H165.919C165.667 117.379 165.463 117.584 165.463 117.836C165.463 118.089 165.667 118.293 165.919 118.293H166.751C167.003 118.293 167.207 118.089 167.207 117.836C167.207 117.584 167.003 117.379 166.751 117.379Z" fill="white"/>
<path d="M161.471 117.455H156.305C156.053 117.455 155.848 117.66 155.848 117.913C155.848 118.165 156.053 118.37 156.305 118.37H161.471C161.723 118.37 161.927 118.165 161.927 117.913C161.927 117.66 161.723 117.455 161.471 117.455Z" fill="white"/>
<path d="M157.085 115.316H156.254C156.002 115.316 155.798 115.52 155.798 115.773C155.798 116.025 156.002 116.23 156.254 116.23H157.085C157.337 116.23 157.541 116.025 157.541 115.773C157.541 115.52 157.337 115.316 157.085 115.316Z" fill="white"/>
<path d="M166.592 115.316H165.761C165.509 115.316 165.305 115.52 165.305 115.773C165.305 116.025 165.509 116.23 165.761 116.23H166.592C166.844 116.23 167.048 116.025 167.048 115.773C167.048 115.52 166.844 115.316 166.592 115.316Z" fill="white"/>
<path d="M169.286 115.316H168.455C168.203 115.316 167.998 115.52 167.998 115.773C167.998 116.025 168.203 116.23 168.455 116.23H169.286C169.538 116.23 169.742 116.025 169.742 115.773C169.742 115.52 169.538 115.316 169.286 115.316Z" fill="white"/>
<path d="M164.006 115.392H158.84C158.588 115.392 158.383 115.597 158.383 115.849C158.383 116.102 158.588 116.306 158.84 116.306H164.006C164.258 116.306 164.463 116.102 164.463 115.849C164.463 115.597 164.258 115.392 164.006 115.392Z" fill="white"/>
<path d="M159.62 113.252H158.789C158.537 113.252 158.333 113.457 158.333 113.709C158.333 113.962 158.537 114.167 158.789 114.167H159.62C159.872 114.167 160.077 113.962 160.077 113.709C160.077 113.457 159.872 113.252 159.62 113.252Z" fill="white"/>
<path d="M169.127 113.252H168.296C168.044 113.252 167.84 113.457 167.84 113.709C167.84 113.962 168.044 114.167 168.296 114.167H169.127C169.379 114.167 169.584 113.962 169.584 113.709C169.584 113.457 169.379 113.252 169.127 113.252Z" fill="white"/>
<path d="M171.821 113.252H170.99C170.738 113.252 170.533 113.457 170.533 113.709C170.533 113.962 170.738 114.167 170.99 114.167H171.821C172.073 114.167 172.277 113.962 172.277 113.709C172.277 113.457 172.073 113.252 171.821 113.252Z" fill="white"/>
<path d="M166.541 113.329H161.375C161.123 113.329 160.919 113.533 160.919 113.786C160.919 114.038 161.123 114.243 161.375 114.243H166.541C166.793 114.243 166.998 114.038 166.998 113.786C166.998 113.533 166.793 113.329 166.541 113.329Z" fill="white"/>
<path d="M147.595 143.625L143.693 137.446L155.942 127.665L160.997 122.054C161.654 121.325 162.491 120.782 163.423 120.478C164.355 120.174 165.35 120.121 166.31 120.323C167.269 120.526 168.158 120.977 168.889 121.631C169.62 122.286 170.166 123.121 170.474 124.054C170.929 125.435 170.831 126.94 170.2 128.251C169.569 129.562 168.455 130.576 167.092 131.079L159.097 134.029L147.595 143.625Z" fill="#FFB6B6"/>
<path d="M56.034 98.8228V128.855H77.0369V98.8228C77.0373 98.6068 76.9685 98.3964 76.8406 98.2225C76.7128 98.0485 76.5326 97.9203 76.3266 97.8565C76.2295 97.8244 76.1278 97.8085 76.0255 97.8097H57.0484C56.9153 97.8094 56.7836 97.8354 56.6606 97.8862C56.5376 97.937 56.4258 98.0116 56.3316 98.1057C56.2374 98.1997 56.1626 98.3115 56.1115 98.4346C56.0605 98.5576 56.0342 98.6896 56.034 98.8228ZM64.2306 109.142C64.236 108.55 64.4747 107.984 64.8945 107.567C65.3144 107.151 65.8816 106.917 66.4726 106.917C67.0637 106.917 67.6308 107.151 68.0507 107.567C68.4706 107.984 68.7092 108.55 68.7147 109.142V112.627C68.7117 113.22 68.4741 113.789 68.054 114.207C67.6338 114.626 67.0653 114.861 66.4726 114.861C65.88 114.861 65.3114 114.626 64.8913 114.207C64.4711 113.789 64.2336 113.22 64.2306 112.627V109.142Z" fill="#2F2E41"/>
<path d="M55.9697 127.895V130.791C55.9702 130.941 56.0297 131.084 56.1353 131.191C56.2409 131.297 56.3841 131.357 56.5339 131.359H76.5371C76.687 131.358 76.8305 131.298 76.9362 131.191C77.0419 131.085 77.1013 130.941 77.1012 130.791V127.895H55.9697Z" fill="#3F3D56"/>
<path d="M22.9936 53.5755V108.41C22.9941 109.109 23.2715 109.779 23.7647 110.273C24.258 110.767 24.9268 111.045 25.6244 111.045H106.742C107.44 111.045 108.108 110.767 108.602 110.273C109.095 109.779 109.372 109.109 109.373 108.41V53.5755C109.371 52.8774 109.093 52.2083 108.6 51.7149C108.107 51.2215 107.439 50.9439 106.742 50.9431H25.6244C24.9274 50.9439 24.2592 51.2215 23.7661 51.7149C23.273 52.2083 22.9952 52.8774 22.9936 53.5755Z" fill="#3F3D56"/>
<path d="M24.8965 54.2578V107.734C24.8972 108.107 25.0455 108.465 25.3091 108.729C25.5726 108.993 25.9299 109.141 26.3026 109.142H106.067C106.44 109.141 106.797 108.993 107.06 108.729C107.324 108.465 107.472 108.107 107.473 107.734V54.2578C107.473 53.884 107.325 53.5254 107.061 53.2608C106.798 52.9962 106.44 52.8472 106.067 52.8464H26.3026C25.9294 52.8472 25.5718 52.9963 25.3082 53.2608C25.0446 53.5254 24.8966 53.884 24.8965 54.2578Z" fill="white"/>
<path d="M39.6994 131.162C39.7806 131.264 39.8838 131.347 40.0013 131.403C40.1187 131.459 40.2474 131.488 40.3776 131.487H87.8321C87.9619 131.487 88.09 131.458 88.2072 131.402C88.3243 131.346 88.4275 131.265 88.5092 131.164C88.591 131.063 88.6493 130.945 88.6798 130.818C88.7103 130.692 88.7123 130.561 88.6857 130.433L87.9491 126.928C87.9185 126.785 87.8528 126.652 87.7578 126.541C87.6629 126.43 87.5417 126.345 87.4054 126.293C87.3067 126.254 87.2015 126.234 87.0955 126.234H41.1113C41.0053 126.234 40.9002 126.254 40.8015 126.293C40.6651 126.345 40.5439 126.43 40.449 126.541C40.354 126.652 40.2883 126.785 40.2577 126.928L39.5211 130.433C39.4949 130.56 39.4973 130.692 39.5281 130.818C39.559 130.944 39.6175 131.062 39.6994 131.162Z" fill="#2F2E41"/>
<path d="M103.478 60.2129H28.8431C28.7656 60.2112 28.6917 60.1791 28.6375 60.1235C28.5832 60.068 28.5529 59.9933 28.5529 59.9156C28.5529 59.8378 28.5832 59.7632 28.6375 59.7076C28.6917 59.6521 28.7656 59.62 28.8431 59.6183H103.478C103.556 59.62 103.63 59.6521 103.684 59.7076C103.738 59.7632 103.769 59.8378 103.769 59.9156C103.769 59.9933 103.738 60.068 103.684 60.1235C103.63 60.1791 103.556 60.2112 103.478 60.2129Z" fill="#3F3D56"/>
<path d="M33.9237 58.1002C34.8843 58.1002 35.6631 57.3027 35.6631 56.319C35.6631 55.3352 34.8843 54.5377 33.9237 54.5377C32.963 54.5377 32.1843 55.3352 32.1843 56.319C32.1843 57.3027 32.963 58.1002 33.9237 58.1002Z" fill="#3F3D56"/>
<path d="M39.9325 58.1002C40.8931 58.1002 41.6719 57.3027 41.6719 56.319C41.6719 55.3352 40.8931 54.5377 39.9325 54.5377C38.9718 54.5377 38.1931 55.3352 38.1931 56.319C38.1931 57.3027 38.9718 58.1002 39.9325 58.1002Z" fill="#3F3D56"/>
<path d="M45.9414 58.1002C46.902 58.1002 47.6808 57.3027 47.6808 56.319C47.6808 55.3352 46.902 54.5377 45.9414 54.5377C44.9807 54.5377 44.202 55.3352 44.202 56.319C44.202 57.3027 44.9807 58.1002 45.9414 58.1002Z" fill="#3F3D56"/>
<path d="M99.8599 54.9781H95.5921C95.5077 54.9801 95.4275 55.0151 95.3685 55.0755C95.3095 55.136 95.2765 55.2172 95.2765 55.3017C95.2765 55.3862 95.3095 55.4674 95.3685 55.5279C95.4275 55.5884 95.5077 55.6233 95.5921 55.6253H99.8599C99.9448 55.6241 100.026 55.5895 100.085 55.5289C100.145 55.4684 100.178 55.3867 100.178 55.3017C100.178 55.2167 100.145 55.1351 100.085 55.0745C100.026 55.014 99.9448 54.9793 99.8599 54.9781Z" fill="#3F3D56"/>
<path d="M99.8599 56.1934H95.5921C95.5076 56.1953 95.4273 56.2302 95.3682 56.2907C95.3092 56.3511 95.2761 56.4324 95.2761 56.517C95.2761 56.6016 95.3092 56.6828 95.3682 56.7433C95.4273 56.8038 95.5076 56.8387 95.5921 56.8405H99.8599C99.9449 56.8395 100.026 56.805 100.086 56.7444C100.146 56.6838 100.179 56.6021 100.179 56.517C100.179 56.4318 100.146 56.3501 100.086 56.2895C100.026 56.229 99.9449 56.1944 99.8599 56.1934Z" fill="#3F3D56"/>
<path d="M99.8599 57.4086H95.5921C95.5077 57.4106 95.4275 57.4455 95.3685 57.506C95.3095 57.5665 95.2765 57.6476 95.2765 57.7322C95.2765 57.8167 95.3095 57.8979 95.3685 57.9584C95.4275 58.0188 95.5077 58.0538 95.5921 58.0557H99.8599C99.9448 58.0545 100.026 58.0199 100.085 57.9594C100.145 57.8988 100.178 57.8172 100.178 57.7322C100.178 57.6471 100.145 57.5655 100.085 57.505C100.026 57.4444 99.9448 57.4098 99.8599 57.4086Z" fill="#3F3D56"/>
<path d="M202.749 129.166C202.878 129.541 203.122 129.866 203.447 130.094C203.772 130.322 204.16 130.441 204.557 130.434L212.301 130.234C212.7 130.226 213.086 130.089 213.401 129.843C213.716 129.598 213.943 129.256 214.049 128.87L215.145 117.132C215.533 117.308 215.957 117.395 216.384 117.387C216.754 117.378 217.12 117.295 217.459 117.144C217.798 116.994 218.104 116.778 218.359 116.508C218.615 116.239 218.815 115.922 218.948 115.575C219.081 115.229 219.145 114.859 219.136 114.488C219.127 114.116 219.044 113.75 218.894 113.411C218.743 113.071 218.528 112.765 218.259 112.509C217.99 112.253 217.674 112.052 217.328 111.919C216.981 111.785 216.613 111.721 216.242 111.73C216.071 111.73 215.901 111.748 215.734 111.783C215.553 111.587 215.332 111.43 215.087 111.324C214.842 111.218 214.577 111.165 214.309 111.168L202.397 111.476C202.299 111.479 202.2 111.492 202.104 111.512C201.842 111.561 201.595 111.665 201.377 111.818C201.159 111.971 200.977 112.168 200.842 112.398C200.707 112.627 200.623 112.883 200.595 113.147C200.566 113.412 200.595 113.68 200.679 113.932L202.749 129.166ZM215.369 116.335L216.149 113.538C216.238 113.214 216.24 112.874 216.155 112.549C216.193 112.549 216.226 112.531 216.264 112.531C216.799 112.52 217.316 112.722 217.703 113.092C218.089 113.463 218.313 113.971 218.325 114.507C218.338 115.043 218.138 115.561 217.769 115.949C217.401 116.337 216.893 116.563 216.359 116.577C216.013 116.588 215.671 116.504 215.369 116.335Z" fill="#2F2E41"/>
<path d="M202.104 111.512C202.357 112.966 205.211 113.988 208.641 113.81C211.796 113.664 214.376 112.555 214.849 111.24C214.674 111.188 214.492 111.163 214.309 111.168L202.397 111.476C202.299 111.479 202.2 111.492 202.104 111.512Z" fill="#3F3D56"/>
<path d="M209.27 122.715C209.286 122.711 209.301 122.705 209.314 122.696L210.996 121.593C211.016 121.58 211.033 121.562 211.045 121.54C211.056 121.519 211.062 121.495 211.062 121.471C211.062 121.446 211.056 121.422 211.045 121.401C211.033 121.38 211.016 121.361 210.996 121.348L209.248 120.201C209.232 120.191 209.214 120.183 209.195 120.18C209.176 120.176 209.157 120.176 209.138 120.18C209.119 120.184 209.101 120.191 209.085 120.202C209.07 120.213 209.056 120.227 209.045 120.243C209.035 120.259 209.028 120.277 209.024 120.296C209.02 120.315 209.021 120.334 209.025 120.353C209.029 120.372 209.036 120.39 209.047 120.406C209.058 120.422 209.072 120.435 209.088 120.446L210.649 121.47L209.154 122.451C209.125 122.47 209.104 122.498 209.094 122.531C209.084 122.565 209.087 122.6 209.101 122.632C209.114 122.664 209.139 122.689 209.17 122.705C209.201 122.72 209.237 122.724 209.27 122.715Z" fill="#6C63FF"/>
<path d="M206.614 122.838C206.642 122.831 206.668 122.815 206.687 122.793C206.707 122.772 206.719 122.745 206.723 122.716C206.727 122.687 206.722 122.657 206.709 122.631C206.697 122.605 206.676 122.583 206.651 122.569L205.101 121.679L206.599 120.564C206.614 120.552 206.627 120.538 206.637 120.521C206.647 120.505 206.654 120.487 206.656 120.468C206.659 120.449 206.658 120.429 206.654 120.411C206.649 120.392 206.641 120.374 206.629 120.359C206.618 120.344 206.603 120.331 206.587 120.321C206.57 120.311 206.552 120.304 206.533 120.302C206.514 120.299 206.495 120.3 206.476 120.304C206.458 120.309 206.44 120.317 206.425 120.329L204.747 121.577C204.728 121.592 204.712 121.611 204.702 121.633C204.692 121.655 204.687 121.679 204.688 121.703C204.69 121.727 204.697 121.751 204.71 121.772C204.723 121.792 204.741 121.809 204.762 121.822L206.505 122.823C206.538 122.842 206.577 122.847 206.614 122.838Z" fill="#6C63FF"/>
<path d="M209.103 123.681C209.117 123.678 209.131 123.672 209.143 123.664C209.159 123.655 209.174 123.641 209.185 123.626C209.196 123.61 209.205 123.593 209.209 123.574C209.214 123.555 209.215 123.536 209.212 123.517C209.209 123.498 209.202 123.48 209.192 123.463L206.808 119.537C206.788 119.504 206.755 119.48 206.718 119.471C206.68 119.462 206.64 119.468 206.607 119.488C206.574 119.509 206.55 119.541 206.541 119.579C206.532 119.616 206.538 119.656 206.558 119.689L208.942 123.616C208.959 123.642 208.983 123.663 209.012 123.675C209.041 123.687 209.073 123.689 209.103 123.681Z" fill="#5E81AC"/>
<path d="M75.0783 76.3767H62.1606C61.6336 76.3767 61.2065 76.8047 61.2065 77.3325V78.5968C61.2065 79.1247 61.6336 79.5526 62.1606 79.5526H75.0783C75.6053 79.5526 76.0325 79.1247 76.0325 78.5968V77.3325C76.0325 76.8047 75.6053 76.3767 75.0783 76.3767Z" fill="#5E81AC"/>
<path d="M82.6079 82.7285H54.631C54.104 82.7285 53.6768 83.1565 53.6768 83.6843V84.9486C53.6768 85.4765 54.104 85.9044 54.631 85.9044H82.6079C83.1349 85.9044 83.5621 85.4765 83.5621 84.9486V83.6843C83.5621 83.1565 83.1349 82.7285 82.6079 82.7285Z" fill="#E6E6E6"/>
<path d="M82.6079 89.0803H54.631C54.104 89.0803 53.6768 89.5082 53.6768 90.0361V91.3004C53.6768 91.8282 54.104 92.2562 54.631 92.2562H82.6079C83.1349 92.2562 83.5621 91.8282 83.5621 91.3004V90.0361C83.5621 89.5082 83.1349 89.0803 82.6079 89.0803Z" fill="#E6E6E6"/>
<path d="M84.9795 110.35L85.0428 110.55L85.0462 110.557L86.9536 116.366L89.1478 123.06L93.2761 135.64L93.3161 137.595V137.601L93.6229 153.321L92.7725 155.453L93.7296 158.947C93.7296 158.947 93.2894 153.665 90.9285 156.698C89.5913 158.422 88.0274 160.186 86.7435 161.839C88.6143 162.597 90.515 163.283 92.4458 163.897C92.8626 164.031 93.2828 164.157 93.7029 164.284C93.793 164.311 93.883 164.338 93.973 164.365C100.373 166.261 106.99 167.326 113.661 167.535C114.008 167.545 114.348 167.551 114.678 167.558C114.795 167.561 114.908 167.565 115.021 167.565C115.395 167.568 115.765 167.571 116.138 167.571C116.892 167.571 117.642 167.56 118.389 167.538C123.918 167.382 129.414 166.637 134.786 165.317C134.749 163.095 134.649 160.5 134.506 157.727C134.439 156.368 132.942 154.894 132.852 153.471C132.788 152.402 134.132 151.397 134.062 150.311C133.609 143.627 133.042 146.193 132.622 141.46C132.578 140.995 132.538 140.551 132.501 140.127C132.231 137.087 132.045 135.186 132.045 135.186L133.839 123.859L136.656 106.074L136.44 105.717L136.196 105.596L121.334 98.2274L120.527 96.1563C120.292 95.5597 119.884 95.0471 119.355 94.6846C118.827 94.322 118.203 94.1261 117.562 94.122L107.772 94.0819C107.264 94.0796 106.762 94.1987 106.309 94.4294C105.856 94.66 105.465 94.9955 105.167 95.4081L102.516 99.0859L84.9795 110.35Z" fill="#3F3D56"/>
<path d="M95.5337 132.841L93.3161 137.595L91.8022 140.842L89.1979 154.501L87.894 155.887L86.7769 150.979L75.0849 153.58C74.7014 151.445 74.9823 153.652 74.7455 151.31C74.8122 151.244 74.8822 151.177 74.9522 151.11C75.139 150.936 75.2957 150.773 75.2924 150.616C75.159 142.538 75.5591 128.792 78.9005 120.465C79.4238 119.105 80.1138 117.816 80.9546 116.627C81.0213 116.536 81.0846 116.446 81.148 116.356C82.6886 114.195 83.6623 112.067 85.0429 110.554V110.55C85.0515 110.543 85.0593 110.536 85.0662 110.527C85.0712 110.524 85.0757 110.521 85.0795 110.517L94.5633 105.479L94.9701 116.931L95.2602 125.161L95.5337 132.841Z" fill="#3F3D56"/>
<path d="M129.73 134.191L132.5 140.128L133.467 142.196L136.071 155.854L137.37 157.237L138.49 152.33L139.016 152.222L148.504 150.254L151.27 159.052C151.893 158.012 152.138 156.788 151.965 155.587C151.791 154.386 151.209 153.282 150.316 152.462C150.127 152.291 149.97 152.124 149.975 151.966C150.132 142.466 149.552 125.119 144.313 117.979C142.649 115.714 141.651 113.457 140.199 111.88C140.194 111.876 140.194 111.871 140.19 111.871L136.655 106.074L136.439 105.718L136.197 105.596L129.73 134.191Z" fill="#3F3D56"/>
<path d="M112.95 91.2908C120.143 91.2908 125.975 85.4491 125.975 78.243C125.975 71.0369 120.143 65.1953 112.95 65.1953C105.756 65.1953 99.9247 71.0369 99.9247 78.243C99.9247 85.4491 105.756 91.2908 112.95 91.2908Z" fill="#FFB6B6"/>
<path d="M130.555 69.1292C130.454 69.0212 130.332 68.9346 130.197 68.8747C130.062 68.8149 129.916 68.7829 129.768 68.7807L129.964 68.2361C130.028 68.0645 130.046 67.879 130.014 67.6986C129.983 67.5182 129.905 67.3493 129.787 67.2092C129.669 67.0692 129.516 66.9631 129.344 66.9016C129.172 66.8402 128.986 66.8258 128.807 66.8598L128.094 66.9974L128.161 66.5201C128.187 66.3424 128.166 66.1609 128.1 65.9937C128.035 65.8264 127.927 65.6791 127.787 65.5663C127.648 65.4534 127.482 65.3789 127.305 65.35C127.128 65.3211 126.946 65.3389 126.778 65.4015C126.625 65.4618 126.461 65.4871 126.297 65.4754C126.133 65.4638 125.974 65.4155 125.831 65.3342C125.688 65.2554 125.563 65.1461 125.466 65.0141C125.369 64.8821 125.302 64.7305 125.27 64.5699L125.021 63.3693L124.995 63.3049C123.785 61.2844 121.458 59.8144 118.611 59.2756C116.076 58.7925 113.478 59.0384 110.973 59.2698C109.979 59.3635 108.856 59.4689 107.921 60.0428C107.126 60.5348 106.453 61.5187 106.591 62.5113C104.121 61.7529 101.472 63.2668 100.16 65.176C98.6047 67.4484 98.3504 70.2946 98.3094 72.5201C98.1984 77.7851 99.2829 82.0926 101.525 85.3253C101.689 85.5596 101.73 86.0486 102.054 86.2126L101.987 86.1043C102.349 86.2858 102.718 86.5786 102.58 86.892C102.186 87.7939 104.808 89.788 106.655 90.4469C110.025 91.6504 114.507 91.5479 117.658 91.1145L117.769 90.3678C118.906 90.2126 119.707 89.9168 119.932 89.4542C120.33 89.1145 120.669 88.81 120.964 88.5288L120.967 88.5259C120.973 88.5201 120.984 88.5113 120.99 88.5054C122.414 87.1379 122.744 86.359 122.893 85.1731C123.036 84.0106 122.782 82.8305 122.522 81.7675C128 82.6167 120.365 75.9227 125.469 74.6285C125.527 74.6104 125.587 74.5957 125.647 74.5845C125.796 74.5494 125.945 74.5143 126.088 74.4733C126.779 74.2855 127.44 74.0027 128.053 73.6329C129.479 72.7632 129.95 71.6094 130.686 70.3093C130.793 70.1242 130.837 69.9099 130.814 69.6977C130.79 69.4854 130.699 69.2863 130.555 69.1292Z" fill="#2F2E41"/>
<path d="M159.018 135.12C159.015 135.633 159.009 136.35 158.985 137.237C158.983 137.36 158.98 137.486 158.977 137.615C158.939 139.246 158.901 140.614 158.839 142.133C158.836 142.239 158.833 142.341 158.828 142.447C158.746 144.567 158.617 147.035 158.395 150.944C157.983 158.166 157.264 151.937 156.542 154.47C156.507 154.596 156.469 154.745 156.434 154.921C156.324 155.559 156.14 156.181 155.884 156.775C155.501 157.003 155.106 157.223 154.718 157.442C153.61 158.06 152.484 158.655 151.35 159.22C150.713 159.536 150.073 159.846 149.43 160.145C149.327 160.192 149.228 160.239 149.129 160.283C145.835 161.809 142.441 163.106 138.971 164.166C138.292 164.371 137.617 164.57 136.933 164.754C136.22 164.953 135.507 165.141 134.785 165.316C129.413 166.637 123.917 167.382 118.389 167.539C117.643 167.562 116.892 167.571 116.138 167.571C115.764 167.571 115.395 167.568 115.021 167.565C114.907 167.565 114.793 167.562 114.679 167.559C114.349 167.551 114.007 167.545 113.662 167.536C106.991 167.328 100.374 166.262 93.9744 164.365L93.7026 164.286C93.2816 164.157 92.8636 164.031 92.4456 163.896C90.5163 163.284 88.6153 162.599 86.7425 161.841C85.3131 161.264 83.9002 160.645 82.5039 159.984C82.4912 159.981 82.4792 159.975 82.4688 159.966C82.1765 159.832 81.8813 159.691 81.589 159.548C81.551 159.527 81.5101 159.507 81.4691 159.486C80.3788 158.953 79.3001 158.395 78.2332 157.811C77.3358 155.747 76.073 155.352 75.2896 153.536C75.0616 152.997 74.8968 152.433 74.7985 151.855C74.7985 151.849 74.7956 151.843 74.7956 151.835C74.8774 152.924 74.4477 149.902 74.7926 151.823C74.7897 151.788 74.7868 151.75 74.7839 151.706C74.7751 151.6 74.7634 151.472 74.7459 151.311C73.7432 141.504 73.8075 130.289 73.372 121.047C73.3427 120.45 73.3125 119.878 73.2814 119.331C73.2726 119.15 73.2609 118.971 73.2492 118.795C73.2697 118.743 73.2931 118.687 73.3194 118.634C73.325 118.619 73.3318 118.604 73.3398 118.59C73.3484 118.572 73.3582 118.554 73.3691 118.538C73.3749 118.529 73.3837 118.517 73.3895 118.508C73.3938 118.498 73.3987 118.488 73.4041 118.479C73.4304 118.438 73.4597 118.394 73.4918 118.353C73.5064 118.336 73.5181 118.321 73.5328 118.306C73.5428 118.291 73.5546 118.278 73.5678 118.265C73.5768 118.251 73.5876 118.238 73.6 118.227C73.6117 118.215 73.6234 118.201 73.638 118.186C73.6442 118.177 73.6522 118.169 73.6614 118.163C73.6845 118.136 73.7099 118.112 73.7374 118.09C73.8417 117.993 73.9531 117.905 74.0706 117.826C74.1115 117.8 74.1554 117.773 74.1963 117.744C74.4909 117.567 74.8011 117.418 75.123 117.299C75.234 117.258 75.3451 117.22 75.465 117.179C75.5088 117.167 75.5497 117.153 75.5936 117.138C75.6579 117.117 75.7222 117.097 75.7894 117.082C76.1227 116.983 76.4822 116.898 76.871 116.819C76.9178 116.81 76.9675 116.801 77.0172 116.789C77.0873 116.775 77.1604 116.763 77.2335 116.751C77.3329 116.734 77.4352 116.716 77.5375 116.699C78.4057 116.561 79.3908 116.459 80.4782 116.391C80.5805 116.385 80.6828 116.379 80.7851 116.374C80.905 116.368 81.0248 116.362 81.1476 116.356C81.2499 116.35 81.3551 116.347 81.4604 116.344C81.5627 116.338 81.6679 116.336 81.7761 116.333C82.0713 116.324 82.3753 116.315 82.6852 116.309C83.568 116.292 84.4975 116.297 85.4739 116.318C85.927 116.33 86.3888 116.341 86.8624 116.362C86.8945 116.362 86.9237 116.365 86.953 116.365C87.3651 116.379 87.7802 116.397 88.207 116.42C88.5052 116.435 88.8063 116.45 89.1073 116.467C89.3909 116.485 89.6774 116.502 89.9667 116.523C90.1918 116.535 90.4169 116.552 90.6449 116.567C90.8378 116.581 91.0308 116.596 91.2237 116.608L91.4868 116.625C91.63 116.637 91.7733 116.646 91.9194 116.661C92.241 116.687 92.5625 116.713 92.8899 116.74C93.2144 116.769 93.5447 116.798 93.875 116.827C94.2053 116.857 94.5386 116.889 94.8718 116.921C94.9069 116.924 94.939 116.927 94.9712 116.93C95.2752 116.962 95.5792 116.991 95.8861 117.024C95.9563 117.03 96.0294 117.035 96.0995 117.044C96.3922 117.074 96.6905 117.108 96.9858 117.14C97.0765 117.149 97.1666 117.159 97.2575 117.169C97.4889 117.194 97.7169 117.216 97.9499 117.243C98.2568 117.278 98.5696 117.311 98.8736 117.352C99.1104 117.378 99.3471 117.404 99.5839 117.434C99.9552 117.478 100.332 117.524 100.709 117.574C100.853 117.592 100.996 117.609 101.139 117.63C102.215 117.765 103.302 117.914 104.407 118.069C106.082 118.306 107.783 118.564 109.496 118.842C111.212 119.12 112.938 119.414 114.673 119.724C115.112 119.803 115.55 119.882 115.992 119.964C116.19 120.002 116.389 120.04 116.588 120.078C116.927 120.139 117.266 120.204 117.605 120.268C117.944 120.333 118.283 120.397 118.622 120.464C119.026 120.543 119.432 120.622 119.836 120.702C122.493 121.229 125.135 121.791 127.713 122.379C128.137 122.476 128.561 122.576 128.982 122.672C129.824 122.868 130.658 123.068 131.484 123.27C131.712 123.322 131.937 123.378 132.163 123.434C132.724 123.574 133.285 123.715 133.837 123.858L133.934 123.885C134.34 123.984 134.738 124.087 135.135 124.192C136.074 124.438 136.996 124.687 137.904 124.939C138.506 125.106 139.101 125.274 139.69 125.445C140.57 125.7 141.432 125.958 142.271 126.218C142.478 126.283 142.686 126.347 142.891 126.409C143.504 126.599 144.109 126.792 144.697 126.986C145.165 127.138 145.621 127.293 146.071 127.448C146.521 127.603 146.962 127.759 147.395 127.914C147.673 128.013 147.948 128.119 148.222 128.218C148.617 128.365 149.006 128.511 149.386 128.658C149.503 128.702 149.617 128.748 149.731 128.792C149.804 128.824 149.874 128.851 149.944 128.88C150.081 128.936 150.222 128.988 150.356 129.044C150.494 129.097 150.628 129.152 150.763 129.211C150.894 129.264 151.029 129.319 151.157 129.375C151.289 129.428 151.417 129.483 151.546 129.542C151.654 129.586 151.759 129.633 151.862 129.68C152.069 129.77 152.277 129.861 152.478 129.955C152.578 130.002 152.677 130.046 152.777 130.092L153.005 130.198C153.037 130.215 153.069 130.23 153.101 130.245C153.174 130.28 153.25 130.318 153.323 130.353C153.493 130.432 153.659 130.517 153.823 130.596C154.042 130.707 154.256 130.819 154.46 130.927C154.668 131.038 154.87 131.15 155.063 131.258C155.095 131.275 155.124 131.293 155.156 131.311C155.2 131.334 155.244 131.36 155.288 131.384C155.437 131.469 155.58 131.557 155.723 131.641C156.004 131.814 156.27 131.984 156.518 132.154C156.574 132.192 156.626 132.23 156.682 132.265C156.866 132.397 157.042 132.526 157.205 132.658C157.205 132.66 157.205 132.66 157.208 132.66C157.264 132.701 157.316 132.745 157.369 132.786C157.413 132.827 157.46 132.863 157.503 132.904C157.655 133.035 157.796 133.161 157.924 133.29C157.967 133.33 158.008 133.372 158.047 133.416C158.064 133.43 158.08 133.446 158.094 133.463C158.152 133.521 158.205 133.58 158.255 133.639C158.262 133.647 158.269 133.655 158.275 133.665C158.345 133.747 158.41 133.829 158.471 133.911C158.5 133.952 158.532 133.993 158.559 134.034C158.594 134.084 158.629 134.136 158.658 134.186C158.684 134.227 158.708 134.271 158.731 134.312C158.793 134.418 158.846 134.528 158.889 134.643C158.922 134.721 158.948 134.801 158.968 134.883C158.99 134.961 159.007 135.04 159.018 135.12Z" fill="#2F2E41"/>
<path opacity="0.2" d="M159.018 135.12C159.015 135.633 159.009 136.35 158.985 137.237C158.983 137.36 158.977 137.486 158.974 137.615C158.944 138.86 158.901 140.397 158.839 142.133C158.836 142.239 158.833 142.341 158.828 142.447C158.746 144.567 158.617 147.035 158.395 150.945C157.983 158.166 157.264 151.937 156.542 154.47C154.536 153.234 152.338 151.94 149.988 150.611C149.564 150.371 149.136 150.129 148.705 149.887C144.004 147.261 138.754 144.508 133.273 141.782C133.057 141.674 132.838 141.565 132.621 141.46C120.066 135.243 106.363 129.196 95.2606 125.161C93.1179 124.382 91.0717 123.68 89.1482 123.062C85.0967 121.764 81.5948 120.857 78.8996 120.464C76.0934 120.054 74.1554 120.201 73.3719 121.047C73.3427 120.45 73.3125 119.878 73.2813 119.331C73.2696 119.15 73.2579 118.971 73.2462 118.795C73.2643 118.747 73.2877 118.701 73.3104 118.655C73.3137 118.648 73.316 118.641 73.3193 118.634C73.3249 118.619 73.3318 118.604 73.3398 118.59C73.3484 118.572 73.3582 118.554 73.369 118.538C73.3785 118.517 73.3903 118.497 73.4041 118.479C73.4304 118.438 73.4596 118.394 73.4918 118.353C73.5154 118.322 73.5408 118.293 73.5678 118.265C73.5768 118.251 73.5876 118.238 73.6 118.227C73.6116 118.215 73.6233 118.201 73.6379 118.186C73.6442 118.177 73.6521 118.169 73.6613 118.163C73.6845 118.136 73.7099 118.112 73.7373 118.09C73.8416 117.993 73.953 117.905 74.0706 117.826C74.1115 117.8 74.1553 117.773 74.1963 117.744C74.4909 117.567 74.8011 117.418 75.1229 117.299C75.234 117.258 75.3451 117.22 75.4649 117.179C75.5088 117.167 75.5497 117.153 75.5935 117.138C75.6579 117.117 75.7222 117.097 75.7894 117.082C76.1226 116.983 76.4822 116.898 76.871 116.819C76.9879 116.795 77.1107 116.772 77.2334 116.751C77.3328 116.734 77.4351 116.716 77.5375 116.699C78.4056 116.561 79.3907 116.458 80.4781 116.391C80.5805 116.385 80.6828 116.379 80.7851 116.374C80.9049 116.368 81.0248 116.362 81.1475 116.356C81.2499 116.35 81.3551 116.347 81.4603 116.344C81.5626 116.338 81.6679 116.336 81.776 116.333C82.0713 116.324 82.3753 116.315 82.6851 116.309C83.5679 116.295 84.4975 116.3 85.4738 116.321C85.9269 116.33 86.3888 116.344 86.8623 116.365C86.8916 116.365 86.9237 116.368 86.9529 116.368C87.3651 116.379 87.7831 116.4 88.207 116.42C88.5051 116.435 88.8062 116.45 89.1073 116.467C89.3908 116.485 89.6773 116.502 89.9667 116.523C90.1918 116.535 90.4169 116.552 90.6449 116.567C90.8378 116.581 91.0307 116.596 91.2237 116.608C91.4546 116.625 91.6855 116.643 91.9194 116.661C92.2409 116.687 92.5625 116.713 92.8899 116.74C93.2143 116.769 93.5447 116.798 93.875 116.827C94.2053 116.857 94.5385 116.889 94.8718 116.921C94.9068 116.924 94.939 116.927 94.9712 116.93C95.2752 116.962 95.5792 116.991 95.8861 117.024C97.5874 117.196 99.3384 117.398 101.139 117.63C102.215 117.767 103.304 117.915 104.407 118.072C106.082 118.309 107.783 118.567 109.496 118.842C111.212 119.12 112.938 119.414 114.673 119.723C115.112 119.803 115.55 119.882 115.992 119.964C116.529 120.063 117.067 120.165 117.605 120.268C117.944 120.333 118.283 120.397 118.622 120.464C119.026 120.543 119.432 120.622 119.836 120.702C122.493 121.229 125.135 121.791 127.713 122.379C128.137 122.476 128.561 122.576 128.982 122.672C129.824 122.868 130.658 123.068 131.484 123.27C131.712 123.325 131.937 123.381 132.163 123.437C132.727 123.577 133.285 123.718 133.837 123.858V123.861C133.87 123.867 133.902 123.876 133.934 123.885C134.337 123.987 134.738 124.09 135.135 124.195C136.074 124.441 136.996 124.689 137.904 124.939C138.506 125.109 139.102 125.275 139.69 125.445C140.57 125.703 141.432 125.961 142.271 126.218C142.478 126.283 142.686 126.347 142.891 126.409C143.504 126.602 144.107 126.794 144.697 126.986C145.165 127.138 145.621 127.293 146.071 127.448C146.521 127.603 146.962 127.759 147.395 127.914C147.676 128.013 147.95 128.116 148.222 128.215C148.62 128.362 149.006 128.508 149.386 128.658C149.503 128.702 149.617 128.748 149.731 128.792C149.944 128.874 150.152 128.959 150.356 129.044C150.494 129.097 150.628 129.152 150.763 129.211C150.894 129.264 151.029 129.319 151.157 129.375C151.289 129.428 151.417 129.483 151.546 129.542C151.654 129.586 151.759 129.633 151.862 129.68C152.069 129.77 152.277 129.861 152.478 129.955C152.578 130.002 152.677 130.046 152.777 130.092L153.005 130.198C153.037 130.215 153.069 130.23 153.101 130.245C153.35 130.362 153.589 130.479 153.823 130.596C154.042 130.707 154.256 130.819 154.46 130.927C154.703 131.056 154.934 131.182 155.156 131.311C155.2 131.334 155.244 131.36 155.288 131.384C155.437 131.469 155.58 131.557 155.723 131.641C156.004 131.814 156.27 131.984 156.518 132.154C156.764 132.324 156.992 132.491 157.205 132.658C157.205 132.661 157.205 132.66 157.208 132.66C157.31 132.742 157.41 132.824 157.503 132.904C157.655 133.035 157.796 133.161 157.924 133.29C157.967 133.33 158.008 133.372 158.047 133.416C158.064 133.43 158.08 133.446 158.094 133.463C158.155 133.53 158.217 133.598 158.275 133.665C158.345 133.747 158.41 133.829 158.471 133.911C158.5 133.952 158.532 133.993 158.559 134.034C158.594 134.084 158.629 134.136 158.658 134.186C158.684 134.227 158.708 134.271 158.731 134.312C158.793 134.418 158.846 134.528 158.889 134.643C158.921 134.721 158.947 134.801 158.968 134.883C158.99 134.961 159.007 135.04 159.018 135.12Z" fill="black"/>
</g>
<defs>
<linearGradient id="paint0_linear_1_153" x1="164.59" y1="99.6928" x2="164.59" y2="125.458" gradientUnits="userSpaceOnUse">
<stop stop-color="#2E3440"/>
<stop offset="1" stop-color="#3B4252"/>
</linearGradient>
<clipPath id="clip0_1_153">
<rect width="230" height="167.571" fill="white"/>
</clipPath>
</defs>
</svg>
