<svg width="50" height="50" viewBox="0 0 50 50" fill="none" xmlns="http://www.w3.org/2000/svg">
<path d="M25 0.765625C11.4637 0.765625 0.5 12.0067 0.5 25.8853C0.5 37.0008 7.51313 46.3893 17.2519 49.7176C18.4769 49.9374 18.9362 49.1838 18.9362 48.5245C18.9362 47.9279 18.9056 45.9497 18.9056 43.8459C12.75 45.0077 11.1575 42.3073 10.6675 40.8943C10.3919 40.1722 9.1975 37.9428 8.15625 37.3462C7.29875 36.8752 6.07375 35.7134 8.12563 35.682C10.055 35.6506 11.4331 37.5032 11.8925 38.2568C14.0975 42.0561 17.6194 40.9885 19.0281 40.3291C19.2425 38.6964 19.8856 37.5974 20.59 36.9694C15.1387 36.3414 9.4425 34.1748 9.4425 24.5665C9.4425 21.8348 10.3919 19.574 11.9538 17.8156C11.7088 17.1876 10.8513 14.6129 12.1988 11.1589C12.1988 11.1589 14.2506 10.4995 18.9362 13.7337C20.8962 13.1685 22.9787 12.8859 25.0612 12.8859C27.1437 12.8859 29.2262 13.1685 31.1862 13.7337C35.8719 10.4681 37.9238 11.1589 37.9238 11.1589C39.2713 14.6129 38.4137 17.1876 38.1687 17.8156C39.7306 19.574 40.68 21.8034 40.68 24.5665C40.68 34.2062 34.9531 36.3414 29.5019 36.9694C30.39 37.7544 31.1556 39.2616 31.1556 41.6165C31.1556 44.9763 31.125 47.6767 31.125 48.5245C31.125 49.1838 31.5844 49.9688 32.8094 49.7176C37.6731 48.0343 41.8994 44.8293 44.8935 40.554C47.8876 36.2788 49.4988 31.1486 49.5 25.8853C49.5 12.0067 38.5363 0.765625 25 0.765625Z" fill="url(#paint0_linear_1_332)"/>
<defs>
<linearGradient id="paint0_linear_1_332" x1="25" y1="0.765625" x2="25" y2="49.7656" gradientUnits="userSpaceOnUse">
<stop stop-color="#413B99"/>
<stop offset="0.9999" stop-color="#6C63FF"/>
</linearGradient>
</defs>
</svg>
