<?xml version="1.0" encoding="UTF-8"?>
<svg xmlns="http://www.w3.org/2000/svg" xmlns:xlink="http://www.w3.org/1999/xlink" width="px" height="96px" viewBox="0 0 72 96" version="1.1">
<g id="surface1">
<path style=" stroke:none;fill-rule:nonzero;fill:rgb(100%,100%,100%);fill-opacity:1;" d="M 2.625 17.960938 C 2.625 8.042969 10.667969 0 20.585938 0 L 51.414062 0 C 61.332031 0 69.375 8.042969 69.375 17.960938 C 69.375 24.242188 66.148438 29.773438 61.257812 32.980469 C 66.148438 36.1875 69.375 41.71875 69.375 48 C 69.375 57.917969 61.332031 65.960938 51.414062 65.960938 L 51.019531 65.960938 C 46.367188 65.960938 42.132812 64.199219 38.945312 61.292969 L 38.945312 77.851562 C 38.945312 87.898438 30.695312 96 20.679688 96 C 10.78125 96 2.625 87.976562 2.625 78.039062 C 2.625 71.757812 5.851562 66.226562 10.726562 63.019531 C 5.851562 59.8125 2.625 54.28125 2.625 48 C 2.625 41.71875 5.851562 36.1875 10.726562 32.980469 C 5.851562 29.773438 2.625 24.242188 2.625 17.960938 Z M 33.054688 35.925781 L 20.585938 35.925781 C 13.914062 35.925781 8.511719 41.324219 8.511719 48 C 8.511719 54.636719 13.875 60.039062 20.511719 60.074219 C 20.53125 60.074219 20.570312 60.074219 20.585938 60.074219 L 33.054688 60.074219 Z M 38.945312 48 C 38.945312 54.675781 44.34375 60.074219 51.019531 60.074219 L 51.414062 60.074219 C 58.070312 60.074219 63.488281 54.675781 63.488281 48 C 63.488281 41.324219 58.070312 35.925781 51.414062 35.925781 L 51.019531 35.925781 C 44.34375 35.925781 38.945312 41.324219 38.945312 48 Z M 20.585938 65.960938 C 20.570312 65.960938 20.53125 65.960938 20.511719 65.960938 C 13.875 66 8.511719 71.398438 8.511719 78.039062 C 8.511719 84.695312 13.988281 90.113281 20.679688 90.113281 C 27.488281 90.113281 33.054688 84.601562 33.054688 77.851562 L 33.054688 65.960938 Z M 20.585938 5.886719 C 13.914062 5.886719 8.511719 11.289062 8.511719 17.960938 C 8.511719 24.636719 13.914062 30.039062 20.585938 30.039062 L 33.054688 30.039062 L 33.054688 5.886719 Z M 38.945312 30.039062 L 51.414062 30.039062 C 58.070312 30.039062 63.488281 24.636719 63.488281 17.960938 C 63.488281 11.289062 58.070312 5.886719 51.414062 5.886719 L 38.945312 5.886719 Z M 38.945312 30.039062 "/>
</g>
</svg>
