<?xml version="1.0" encoding="UTF-8"?>
<svg xmlns="http://www.w3.org/2000/svg" xmlns:xlink="http://www.w3.org/1999/xlink" width="px" height="96px" viewBox="0 0 84 96" version="1.1">
<g id="surface1">
<path style=" stroke:none;fill-rule:nonzero;fill:rgb(100%,100%,100%);fill-opacity:1;" d="M 82.425781 44.269531 L 45.75 7.59375 C 43.636719 5.488281 40.214844 5.488281 38.101562 7.59375 L 30.46875 15.207031 L 40.125 24.863281 C 45.207031 23.15625 50.007812 28.011719 48.261719 33.054688 L 57.582031 42.375 C 63.992188 40.164062 69.054688 48.1875 64.238281 53.007812 C 59.269531 57.976562 51.074219 52.460938 53.738281 46.011719 L 45.039062 37.3125 L 45.039062 60.167969 C 49.78125 62.511719 49.21875 68.023438 46.742188 70.480469 C 45.535156 71.691406 43.898438 72.375 42.1875 72.375 C 40.476562 72.375 38.839844 71.691406 37.632812 70.480469 C 34.332031 67.179688 35.550781 61.6875 39.75 59.980469 L 39.75 36.917969 C 35.851562 35.324219 35.136719 31.164062 36.261719 28.480469 L 26.738281 18.9375 L 1.59375 44.082031 C -0.511719 46.195312 -0.511719 49.617188 1.59375 51.730469 L 38.269531 88.40625 C 40.382812 90.511719 43.804688 90.511719 45.917969 88.40625 L 82.425781 51.898438 C 84.53125 49.785156 84.53125 46.363281 82.425781 44.25 Z M 82.425781 44.269531 "/>
</g>
</svg>
